<?xml version="1.0" standalone="no"?>
<!DOCTYPE svg PUBLIC "-//W3C//DTD SVG 20010904//EN"
 "http://www.w3.org/TR/2001/REC-SVG-20010904/DTD/svg10.dtd">
<svg version="1.0" xmlns="http://www.w3.org/2000/svg"
 width="512.000000pt" height="512.000000pt" viewBox="0 0 512.000000 512.000000"
 preserveAspectRatio="xMidYMid meet">

<g transform="translate(0.000000,512.000000) scale(0.100000,-0.100000)"
fill="#000000" stroke="none">
<path d="M967 5105 c-165 -31 -322 -112 -444 -229 -202 -191 -295 -423 -280
-699 9 -173 55 -309 151 -452 l47 -69 -55 -106 c-260 -504 -333 -1114 -201
-1670 108 -452 330 -844 662 -1172 378 -374 836 -602 1373 -685 160 -24 520
-24 680 0 547 84 1013 319 1392 703 372 377 601 832 683 1359 22 143 30 425
16 575 -30 308 -106 579 -242 856 l-69 142 46 68 c56 83 98 173 127 274 18 63
22 100 21 230 0 139 -3 164 -27 243 -51 165 -125 285 -250 403 -353 336 -908
321 -1253 -34 l-63 -65 -128 31 c-237 57 -324 67 -593 67 -269 0 -356 -10
-593 -67 l-127 -31 -70 71 c-118 120 -258 202 -415 242 -106 28 -283 35 -388
15z m298 -360 c129 -34 241 -116 318 -234 86 -130 142 -152 275 -108 125 42
210 65 332 89 103 21 142 23 375 23 242 -1 269 -3 389 -28 72 -15 188 -45 259
-68 190 -61 230 -49 324 92 191 291 586 336 828 94 104 -104 155 -228 155
-374 -1 -159 -40 -256 -155 -381 -115 -126 -119 -168 -28 -321 141 -238 223
-455 276 -729 19 -100 22 -146 21 -360 -1 -135 -5 -267 -10 -293 l-9 -49 -95
128 c-108 146 -321 366 -451 467 -329 254 -690 414 -1104 488 -169 30 -528 38
-705 15 -693 -91 -1298 -454 -1698 -1021 l-57 -80 -12 85 c-17 122 -16 398 2
533 37 285 132 553 288 816 91 152 87 196 -26 319 -118 129 -157 223 -157 382
0 295 230 527 525 529 45 1 107 -6 140 -14z m1603 -1911 c660 -98 1241 -516
1546 -1114 l56 -109 -29 -65 c-86 -190 -239 -405 -411 -576 -397 -398 -908
-610 -1470 -610 -395 0 -754 102 -1099 312 -319 195 -633 546 -782 873 l-29
65 41 83 c327 654 956 1087 1679 1157 124 12 365 4 498 -16z"/>
<path d="M1137 4336 c-148 -54 -167 -247 -32 -323 125 -71 281 36 262 179 -14
105 -133 179 -230 144z"/>
<path d="M3888 4340 c-79 -24 -138 -96 -138 -168 0 -38 23 -98 48 -125 27 -30
88 -57 129 -57 52 0 123 37 150 78 66 99 12 239 -104 271 -43 12 -48 12 -85 1z"/>
<path d="M2204 4039 c-68 -19 -134 -130 -118 -196 18 -75 51 -110 144 -158
116 -58 201 -79 325 -79 129 0 203 16 320 73 107 52 140 86 159 164 17 70 -48
173 -122 195 -60 18 -81 15 -159 -22 -100 -48 -176 -62 -253 -47 -34 7 -93 28
-133 47 -72 35 -107 39 -163 23z"/>
</g>
</svg>
