<?xml version="1.0" encoding="utf-8"?>
<!-- Generator: Adobe Illustrator 27.0.0, SVG Export Plug-In . SVG Version: 6.00 Build 0)  -->
<svg version="1.1" id="레이어_1" xmlns="http://www.w3.org/2000/svg" xmlns:xlink="http://www.w3.org/1999/xlink" x="0px"
	 y="0px" viewBox="0 0 512 512" style="enable-background:new 0 0 512 512;" xml:space="preserve">
<style type="text/css">
	.st0{fill:#96FF80;}
	.st1{fill:#BFF4B3;}
</style>
<path class="st0" d="M126.5,37.5c12.9,3.4,24.1,11.6,31.8,23.4c8.6,13,14.2,15.2,27.5,10.8c12.5-4.2,21-6.5,33.2-8.9
	c10.3-2.1,14.2-2.3,37.5-2.3c24.2,0.1,26.9,0.3,38.9,2.8c7.2,1.5,18.8,4.5,25.9,6.8c19,6.1,23,4.9,32.4-9.2
	c19.1-29.1,58.6-33.6,82.8-9.4C446.9,61.9,452,74.3,452,88.9c-0.1,15.9-4,25.6-15.5,38.1c-11.5,12.6-11.9,16.8-2.8,32.1
	c14.1,23.8,22.3,45.5,27.6,72.9c1.9,10,2.2,14.6,2.1,36c-0.1,13.5-0.5,26.7-1,29.3l-0.9,4.9l-9.5-12.8
	c-10.8-14.6-32.1-36.6-45.1-46.7c-32.9-25.4-69-41.4-110.4-48.8c-16.9-3-52.8-3.8-70.5-1.5c-69.3,9.1-129.8,45.4-169.8,102.1l-5.7,8
	l-1.2-8.5c-1.7-12.2-1.6-39.8,0.2-53.3c3.7-28.5,13.2-55.3,28.8-81.6c9.1-15.2,8.7-19.6-2.6-31.9C63.9,114.3,60,104.9,60,89
	c0-29.5,23-52.7,52.5-52.9C117,36,123.2,36.7,126.5,37.5z"/>
<path class="st1" d="M286.8,228.6c66,9.8,124.1,51.6,154.6,111.4l5.6,10.9l-2.9,6.5c-8.6,19-23.9,40.5-41.1,57.6
	c-39.7,39.8-90.8,61-147,61c-39.5,0-75.4-10.2-109.9-31.2c-31.9-19.5-63.3-54.6-78.2-87.3L65,351l4.1-8.3
	C101.8,277.3,164.7,234,237,227C249.4,225.8,273.5,226.6,286.8,228.6z"/>
<g transform="translate(0.000000,512.000000) scale(0.100000,-0.100000)">
	<path d="M967,5105c-165-31-322-112-444-229c-202-191-295-423-280-699c9-173,55-309,151-452l47-69l-55-106
		C126,3046,53,2436,185,1880c108-452,330-844,662-1172c378-374,836-602,1373-685c160-24,520-24,680,0c547,84,1013,319,1392,703
		c372,377,601,832,683,1359c22,143,30,425,16,575c-30,308-106,579-242,856l-69,142l46,68c56,83,98,173,127,274c18,63,22,100,21,230
		c0,139-3,164-27,243c-51,165-125,285-250,403c-353,336-908,321-1253-34l-63-65l-128,31c-237,57-324,67-593,67s-356-10-593-67
		l-127-31l-70,71c-118,120-258,202-415,242C1249,5118,1072,5125,967,5105z M1265,4745c129-34,241-116,318-234
		c86-130,142-152,275-108c125,42,210,65,332,89c103,21,142,23,375,23c242-1,269-3,389-28c72-15,188-45,259-68c190-61,230-49,324,92
		c191,291,586,336,828,94c104-104,155-228,155-374c-1-159-40-256-155-381c-115-126-119-168-28-321c141-238,223-455,276-729
		c19-100,22-146,21-360c-1-135-5-267-10-293l-9-49l-95,128c-108,146-321,366-451,467c-329,254-690,414-1104,488
		c-169,30-528,38-705,15c-693-91-1298-454-1698-1021l-57-80l-12,85c-17,122-16,398,2,533c37,285,132,553,288,816
		c91,152,87,196-26,319c-118,129-157,223-157,382c0,295,230,527,525,529C1170,4760,1232,4753,1265,4745z M2868,2834
		c660-98,1241-516,1546-1114l56-109l-29-65c-86-190-239-405-411-576c-397-398-908-610-1470-610c-395,0-754,102-1099,312
		c-319,195-633,546-782,873l-29,65l41,83c327,654,956,1087,1679,1157C2494,2862,2735,2854,2868,2834z"/>
	<path d="M1137,4336c-148-54-167-247-32-323c125-71,281,36,262,179C1353,4297,1234,4371,1137,4336z"/>
	<path d="M3888,4340c-79-24-138-96-138-168c0-38,23-98,48-125c27-30,88-57,129-57c52,0,123,37,150,78c66,99,12,239-104,271
		C3930,4351,3925,4351,3888,4340z"/>
	<path d="M2204,4039c-68-19-134-130-118-196c18-75,51-110,144-158c116-58,201-79,325-79c129,0,203,16,320,73c107,52,140,86,159,164
		c17,70-48,173-122,195c-60,18-81,15-159-22c-100-48-176-62-253-47c-34,7-93,28-133,47C2295,4051,2260,4055,2204,4039z"/>
</g>
</svg>
